# xmcd
#
# Track frame offsets:
# 150
# 84332
# 128586
# 138189
# 191909
# 244426
# 297698
#
# Disc length: 4465 seconds
#
# Revision: 0
# Processed by: cddbd v1.5.2PL0 Copyright (c) Steve Scherf et al.
# Submitted via: Audion 3.0.2 (http://www.panic.com/audion/)
#
DISCID=68116f07
DTITLE=Steps Ahead Perugia july 85 - Steps Ahead Perugia July 85
DYEAR=1900
DGENRE=
TTITLE0=1
TTITLE1=2
TTITLE2=3
TTITLE3=4
TTITLE4=5
TTITLE5=6
TTITLE6=7
EXTD=
EXTT0=
EXTT1=
EXTT2=
EXTT3=
EXTT4=
EXTT5=
EXTT6=
PLAYORDER=
